#!OML:ASF H:\Punching\Project 1\Capture day 1\Session 1\female.ASF
:FULLY-SPECIFIED
:DEGREES
4074
root 1.58923 15.8615 4.26056 -169.981 147.467 -183.672
lowerback -6.24523 -2.04223 4.9055
upperback -5.99802 -2.78814 2.91823
thorax -2.80614 -1.47973 0.171083
lowerneck -15.4032 4.29507 9.5795
upperneck 36.4153 5.82082 -5.45216
head 16.0011 3.17089 -2.95594
rclavicle 1.89839e-014 2.38542e-014
rhumerus -38.8864 -9.48398 -67.5229
rradius 26.1439
rwrist 11.4997
rhand -12.613 -6.05137
rfingers 7.12502
rthumb 13.4662 -35.596
lclavicle 1.89839e-014 2.38542e-014
lhumerus -45.8795 1.92832 82.938
lradius 35.9799
lwrist -20.2948
lhand -2.70388 10.9708
lfingers 7.12502
lthumb 22.9981 39.6188
rfemur -21.8715 2.1375 27.8078
rtibia 21.6381
rfoot -11.4996 -10.8762
rtoes -2.99258
lfemur -18.8684 -1.14108 -17.7172
ltibia 61.8528
lfoot 13.2095 0.704085
ltoes -0.386925
4075
root 1.62413 15.8601 4.36329 -170.005 147.485 -183.644
lowerback -6.24849 -1.91263 4.83427
upperback -5.95365 -2.61823 2.80463
thorax -2.75326 -1.39368 0.0970646
lowerneck -15.4699 4.18966 9.5056
upperneck 36.4489 5.62352 -5.30273
head 16.003 3.09864 -2.91396
rclavicle 6.15487e-014 2.54444e-014
rhumerus -38.4671 -8.90434 -68.2465
rradius 26.3787
rwrist 11.1048
rhand -12.6158 -6.01933
rfingers 7.12502
rthumb 13.4635 -35.5642
lclavicle 6.15487e-014 2.54444e-014
lhumerus -45.7923 2.1603 82.4727
lradius 36.1518
lwrist -19.8098
lhand -3.02435 11.1068
lfingers 7.12502
lthumb 22.6906 39.7927
rfemur -21.3659 2.08737 27.9377
rtibia 21.6045
rfoot -11.581 -10.902
rtoes -2.37164
lfemur -20.2976 -0.931124 -17.8355
ltibia 63.0305
lfoot 10.747 0.964201
ltoes -1.0694
4076
root 1.65917 15.8554 4.46483 -170.052 147.498 -183.637
lowerback -6.23546 -1.78448 4.78642
upperback -5.90459 -2.45023 2.6901
thorax -2.70566 -1.30946 0.00982002
lowerneck -15.5374 4.08524 9.42698
upperneck 36.4826 5.42632 -5.14563
head 16.0054 3.0269 -2.86774
rclavicle 6.78353e-015 2.22639e-014
rhumerus -38.0266 -8.3232 -68.9598
rradius 26.5906
rwrist 10.7798
rhand -12.6338 -5.94387
rfingers 7.12502
rthumb 13.4462 -35.4899
lclavicle 6.78353e-015 2.22639e-014
lhumerus -45.7114 2.35246 82.0354
lradius 36.3692
lwrist -19.234
lhand -3.37109 11.2039
lfingers 7.12502
lthumb 22.3578 39.9302
rfemur -20.8646 1.98256 28.0981
rtibia 21.6384
rfoot -11.7359 -10.9187
rtoes -1.84263
lfemur -21.6959 -0.767694 -17.9418
ltibia 64.0687
lfoot 8.28805 1.42706
ltoes -2.1296
4077
root 1.69459 15.8475 4.56511 -170.128 147.5 -183.663
lowerback -6.19963 -1.65537 4.78025
upperback -5.85728 -2.28083 2.57327
thorax -2.67428 -1.22625 -0.101799
lowerneck -15.5949 3.97848 9.34559
upperneck 36.5168 5.22416 -4.97916
head 16.0054 2.95432 -2.81793
rclavicle 5.76476e-015 -1.59028e-014
rhumerus -37.5841 -7.75523 -69.6543
rradius 26.7881
rwrist 10.5331
rhand -12.6699 -5.83362
rfingers 7.12502
rthumb 13.4114 -35.3819
lclavicle 5.76476e-015 -1.59028e-014
lhumerus -45.6437 2.49194 81.6273
lradius 36.6229
lwrist -18.5916
lhand -3.73048 11.2574
lfingers 7.12502
lthumb 22.0128 40.0247
rfemur -20.3502 1.83885 28.2905
rtibia 21.6814
rfoot -11.9143 -10.9189
rtoes -1.3879
lfemur -23.0527 -0.65242 -18.0244
ltibia 64.9329
lfoot 5.92378 2.10043
ltoes -3.445
4078
root 1.7305 15.8333 4.66349 -170.225 147.495 -183.705
lowerback -6.14346 -1.52761 4.80319
upperback -5.80959 -2.11297 2.4546
thorax -2.65468 -1.14501 -0.230847
lowerneck -15.6468 3.87174 9.25891
upperneck 36.5482 5.02253 -4.80797
head 16.0031 2.88202 -2.76498
rclavicle -1.50828e-014 2.78299e-015
rhumerus -37.1388 -7.20427 -70.3236
rradius 26.9816
rwrist 10.3631
rhand -12.7088 -5.70851
rfingers 7.12502
rthumb 13.3739 -35.2593
lclavicle -1.50828e-014 2.78299e-015
lhumerus -45.5784 2.60667 81.2406
lradius 36.8904
lwrist -17.9321
lhand -4.10598 11.2682
lfingers 7.12502
lthumb 21.6522 40.0775
rfemur -19.8538 1.68811 28.4899
rtibia 21.7635
rfoot -12.1299 -10.9174
rtoes -0.962047
lfemur -24.3762 -0.587081 -18.1018
ltibia 65.6234
lfoot 3.68865 2.94116
ltoes -4.87126
4079
root 1.76764 15.8223 4.7619 -170.335 147.487 -183.761
lowerback -6.0698 -1.39892 4.85645
upperback -5.76498 -1.94371 2.3309
thorax -2.64867 -1.06442 -0.381348
lowerneck -15.6897 3.76428 9.17049
upperneck 36.5778 4.82004 -4.63307
head 15.9983 2.80986 -2.71027
rclavicle -3.27001e-014 -3.57812e-015
rhumerus -36.7017 -6.68948 -70.9611
rradius 27.177
rwrist 10.2747
rhand -12.7383 -5.57949
rfingers 7.12502
rthumb 13.3454 -35.1321
lclavicle -3.27001e-014 -3.57812e-015
lhumerus -45.5193 2.68296 80.881
lradius 37.1763
lwrist -17.2581
lhand -4.47929 11.2859
lfingers 7.12502
lthumb 21.2936 40.1361
rfemur -19.3725 1.56463 28.6835
rtibia 21.8831
rfoot -12.389 -10.9325
rtoes -0.548425
lfemur -25.6357 -0.562536 -18.1739
ltibia 66.0956
lfoot 1.57951 3.85639
ltoes -6.18308
4080
root 1.80553 15.8108 4.85942 -170.456 147.48 -183.831
lowerback -5.97582 -1.26566 4.93962
upperback -5.72732 -1.76775 2.19968
thorax -2.6614 -0.98202 -0.555493
lowerneck -15.7182 3.65491 9.08656
upperneck 36.606 4.61451 -4.45712
head 15.9901 2.73756 -2.65653
rclavicle 2.23633e-014 1.35174e-014
rhumerus -36.2819 -6.22249 -71.5649
rradius 27.3723
rwrist 10.2525
rhand -12.7833 -5.43487
rfingers 7.12502
rthumb 13.3021 -34.9903
lclavicle 2.23633e-014 1.35174e-014
lhumerus -45.4681 2.71564 80.5453
lradius 37.4715
lwrist -16.5966
lhand -4.84898 11.3104
lfingers 7.12502
lthumb 20.9385 40.2003
rfemur -18.9293 1.53069 28.8626
rtibia 22.0544
rfoot -12.6825 -11.0091
rtoes -0.11478
lfemur -26.8506 -0.574225 -18.2417
ltibia 66.3721
lfoot -0.409691 4.7779
ltoes -7.24375
4081
root 1.84411 15.7977 4.95587 -170.571 147.477 -183.897
lowerback -5.87395 -1.13401 5.0292
upperback -5.69333 -1.59341 2.06576
thorax -2.68155 -0.900883 -0.736132
lowerneck -15.7398 3.54812 9.00442
upperneck 36.631 4.41609 -4.28898
head 15.9803 2.66751 -2.60517
rclavicle -6.76365e-014 7.95139e-015
rhumerus -35.8667 -5.78416 -72.136
rradius 27.5733
rwrist 10.2692
rhand -12.833 -5.28495
rfingers 7.12502
rthumb 13.2541 -34.8435
lclavicle -6.76365e-014 7.95139e-015
lhumerus -45.4192 2.73035 80.233
lradius 37.7706
lwrist -15.9716
lhand -5.21131 11.343
lfingers 7.12502
lthumb 20.5904 40.271
rfemur -18.4964 1.55487 29.0219
rtibia 22.2385
rfoot -13.0076 -11.1356
rtoes 0.229643
lfemur -28.0275 -0.631239 -18.3167
ltibia 66.4625
lfoot -2.30515 5.66876
ltoes -7.89224
4082
root 1.88308 15.7829 5.05139 -170.684 147.477 -183.967
lowerback -5.76315 -1.00222 5.13014
upperback -5.66462 -1.41828 1.93038
thorax -2.71131 -0.820019 -0.924682
lowerneck -15.7505 3.44329 8.93053
upperneck 36.6502 4.2235 -4.13262
head 15.967 2.59952 -2.55929
rclavicle 7.26682e-014 1.19271e-015
rhumerus -35.4589 -5.36497 -72.6819
rradius 27.7724
rwrist 10.2987
rhand -12.9266 -5.11411
rfingers 7.12502
rthumb 13.1639 -34.6786
lclavicle 7.26682e-014 1.19271e-015
lhumerus -45.3767 2.73087 79.9365
lradius 38.0694
lwrist -15.4064
lhand -5.55934 11.3785
lfingers 7.12502
lthumb 20.2559 40.3423
rfemur -18.0885 1.66274 29.1715
rtibia 22.4702
rfoot -13.3812 -11.3428
rtoes 0.492646
lfemur -29.173 -0.733421 -18.3835
ltibia 66.3848
lfoot -4.10029 6.52598
ltoes -8.09327
4083
root 1.92242 15.7662 5.14601 -170.787 147.479 -184.044
lowerback -5.65144 -0.873056 5.24048
upperback -5.64353 -1.24627 1.7966
thorax -2.74868 -0.741257 -1.11725
lowerneck -15.7522 3.34289 8.86687
upperneck 36.6661 4.04093 -3.991
head 15.9521 2.53519 -2.51979
rclavicle 1.1855e-013 -3.97569e-016
rhumerus -35.0553 -4.9547 -73.2051
rradius 27.9687
rwrist 10.32
rhand -13.0497 -4.93938
rfingers 7.12502
rthumb 13.0453 -34.5114
lclavicle 1.1855e-013 -3.97569e-016
lhumerus -45.3384 2.74954 79.6381
lradius 38.348
lwrist -14.937
lhand -5.88798 11.3744
lfingers 7.12502
lthumb 19.94 40.3713
rfemur -17.711 1.811 29.3207
rtibia 22.7349
rfoot -13.7931 -11.5964
rtoes 0.69327
lfemur -30.2957 -0.890275 -18.433
ltibia 66.1444
lfoot -5.82314 7.32973
ltoes -8.03661
